:FULLY-SPECIFIED
:FORCE-ALL-JOINTS-BE-3DOF
:DEGREES
1020
root 0.245668 13.5564 -35.3871 12.2711 -28.1221 -17.737
lfemur -70.0318 36.1288 -4.08775
ltibia 82.223 -0 0
lfoot -12.7356 -9.23225 0.0150485
ltoes -4.87979 0 0
rfemur 10.3767 -8.72737 8.77587
rtibia 36.2196 -0 0
rfoot -22.756 -26.079 0.00148844
rtoes -31.3309 0 0
lowerback 10.1627 -0.904275 5.47026
upperback -1.86872 0.0171472 8.24727
thorax -7.75149 -0.0685605 5.75956
lowerneck -4.7801 8.34253 3.44121
upperneck 7.98699 10.9932 -1.06476
head 3.71199 5.50248 -0.403189
lclavicle -5.7573e-14 1.55052e-14 0
lhumerus 83.4656 -11.4227 27.5273
lradius 95.1706 -0 0
lwrist 9.74263 0 0
lhand -35.7388 31.1155 0.0165061
lfingers 7.12502 -0 0
lthumb -8.85778 60.9114 0.0160207
rclavicle -5.7573e-14 1.55052e-14 0
rhumerus -77.5994 23.0181 -95.058
rradius 112.016 -0 0
rwrist -63.043 0 0
rhand -10.2003 -25.086 2.32206e-05
rfingers 7.12502 -0 0
rthumb 15.7908 -54.4619 1.73551e-05
1021
root 0.245029 13.5526 -35.3791 12.275 -28.1283 -17.7219
lfemur -70.055 36.1432 -4.10936
ltibia 82.2907 -0 0
lfoot -12.8105 -9.14217 0.0129698
ltoes -5.05021 0 0
rfemur 10.3976 -8.72093 8.74452
rtibia 36.2032 -0 0
rfoot -22.7429 -26.0968 0.00130624
rtoes -31.3349 0 0
lowerback 10.1539 -0.891509 5.4425
upperback -1.8733 0.0291423 8.22675
thorax -7.75162 -0.0617095 5.75033
lowerneck -4.79514 8.33988 3.43664
upperneck 7.98069 10.9884 -1.05295
head 3.71146 5.50037 -0.398383
lclavicle -5.7573e-14 1.55052e-14 0
lhumerus 83.3776 -10.4975 27.7231
lradius 94.938 -0 0
lwrist 9.50153 0 0
lhand -35.7655 30.9702 0.013193
lfingers 7.12502 -0 0
lthumb -8.88351 60.7643 0.0128166
rclavicle -5.7573e-14 1.55052e-14 0
rhumerus -77.603 23.0269 -95.0713
rradius 111.993 -0 0
rwrist -63.0809 0 0
rhand -10.2109 -25.0702 5.86493e-05
rfingers 7.12502 -0 0
rthumb 15.7806 -54.4469 5.15787e-05
1022
root 0.24439 13.5487 -35.371 12.2796 -28.135 -17.7063
lfemur -70.0785 36.1546 -4.13041
ltibia 82.3585 -0 0
lfoot -12.8851 -9.04238 0.0107102
ltoes -5.23269 0 0
rfemur 10.4163 -8.71517 8.71233
rtibia 36.1882 -0 0
rfoot -22.7279 -26.1155 0.00109779
rtoes -31.3429 0 0
lowerback 10.1476 -0.878911 5.41496
upperback -1.87713 0.0411358 8.20619
thorax -7.75242 -0.0548696 5.74099
lowerneck -4.81003 8.33706 3.43174
upperneck 7.97321 10.9834 -1.04148
head 3.71048 5.49815 -0.393685
lclavicle -5.7573e-14 1.55052e-14 0
lhumerus 83.3079 -9.61555 27.9112
lradius 94.7213 -0 0
lwrist 9.28273 0 0
lhand -35.7914 30.8368 0.0100654
lfingers 7.12502 -0 0
lthumb -8.90845 60.6293 0.00978863
rclavicle -5.7573e-14 1.55052e-14 0
rhumerus -77.6057 23.0345 -95.0841
rradius 111.971 -0 0
rwrist -63.1195 0 0
rhand -10.2195 -25.0578 8.109e-05
rfingers 7.12502 -0 0
rthumb 15.7723 -54.4352 7.35031e-05
1023
root 0.243751 13.5449 -35.363 12.285 -28.1422 -17.6903
lfemur -70.1025 36.163 -4.15086
ltibia 82.4264 -0 0
lfoot -12.9592 -8.93246 0.00827601
ltoes -5.4277 0 0
rfemur 10.4324 -8.71014 8.67924
rtibia 36.1746 -0 0
rfoot -22.711 -26.1352 0.000862884
rtoes -31.3551 0 0
lowerback 10.1439 -0.866514 5.38765
upperback -1.88019 0.0530959 8.18563
thorax -7.75391 -0.0480569 5.73157
lowerneck -4.82473 8.33405 3.42651
upperneck 7.96452 10.9783 -1.03038
head 3.70903 5.49581 -0.389103
lclavicle -5.7573e-14 1.55052e-14 0
lhumerus 83.2577 -8.77948 28.0913
lradius 94.5227 -0 0
lwrist 9.0878 0 0
lhand -35.8166 30.7162 0.00715321
lfingers 7.12502 -0 0
lthumb -8.93277 60.5073 0.00696517
rclavicle -5.7573e-14 1.55052e-14 0
rhumerus -77.6073 23.041 -95.0964
rradius 111.949 -0 0
rwrist -63.1585 0 0
rhand -10.2275 -25.0484 6.21878e-05
rfingers 7.12502 -0 0
rthumb 15.7646 -54.4264 5.71218e-05
1024
root 0.243113 13.541 -35.355 12.2911 -28.1499 -17.6739
lfemur -70.1269 36.1682 -4.1707
ltibia 82.4944 -0 0
lfoot -13.0329 -8.81196 0.00567424
ltoes -5.6357 0 0
rfemur 10.446 -8.70587 8.6452
rtibia 36.1625 -0 0
rfoot -22.6921 -26.1558 0.000601497
rtoes -31.3717 0 0
lowerback 10.1431 -0.854352 5.36059
upperback -1.88243 0.0649907 8.16512
thorax -7.75615 -0.0412872 5.72215
lowerneck -4.83924 8.33088 3.42094
upperneck 7.95462 10.9729 -1.01966
head 3.70712 5.49336 -0.384646
lclavicle -5.7573e-14 1.55052e-14 0
lhumerus 83.2282 -7.99197 28.2632
lradius 94.3445 -0 0
lwrist 8.91833 0 0
lhand -35.8413 30.6093 0.00448557
lfingers 7.12502 -0 0
lthumb -8.95663 60.3992 0.00437414
rclavicle -5.7573e-14 1.55052e-14 0
rhumerus -77.6079 23.0462 -95.1079
rradius 111.928 -0 0
rwrist -63.198 0 0
rhand -10.2302 -25.0454 5.37077e-05
rfingers 7.12502 -0 0
rthumb 15.762 -54.4236 4.96319e-05
1025
root 0.242474 13.5372 -35.347 12.2981 -28.1581 -17.6572
lfemur -70.1518 36.17 -4.1899
ltibia 82.5627 -0 0
lfoot -13.106 -8.68044 0.00291274
ltoes -5.85715 0 0
rfemur 10.4569 -8.7024 8.61014
rtibia 36.152 -0 0
rfoot -22.6711 -26.1774 0.000313763
rtoes -31.3929 0 0
lowerback 10.1452 -0.842459 5.3338
upperback -1.88382 0.0767884 8.14472
thorax -7.75917 -0.0345765 5.71276
lowerneck -4.85355 8.32752 3.41501
upperneck 7.94347 10.9674 -1.00936
head 3.70474 5.4908 -0.380323
lclavicle -5.7573e-14 1.55052e-14 0
lhumerus 83.2207 -7.25573 28.4267
lradius 94.189 -0 0
lwrist 8.77588 0 0
lhand -35.8657 30.5169 0.00209152
lfingers 7.12502 -0 0
lthumb -8.9802 60.3057 0.00204321
rclavicle -5.7573e-14 1.55052e-14 0
rhumerus -77.6074 23.0502 -95.1188
rradius 111.909 -0 0
rwrist -63.2378 0 0
rhand -10.2317 -25.0444 3.60728e-05
rfingers 7.12502 -0 0
rthumb 15.7605 -54.4227 3.35155e-05
1026
root 0.241835 13.5333 -35.339 372.306 -28.1668 342.36
lfemur -70.1772 36.1683 -4.20844
ltibia 82.6312 0 0
lfoot -13.1786 -8.53747 0
ltoes -6.09254 0 0
rfemur 10.4651 -8.69976 8.57401
rtibia 36.1431 0 0
rfoot -22.6479 -26.2 0
rtoes -31.419 0 0
lowerback 10.1503 -0.830868 5.30728
upperback -1.88432 0.0884574 8.12446
thorax -7.76301 -0.0279407 5.70346
lowerneck -4.86763 8.32399 3.40872
upperneck 7.93106 10.9617 -0.999513
head 3.70187 5.48813 -0.376144
lclavicle -5.7573e-14 1.55052e-14 0
lhumerus 83.2364 -6.57342 28.5815
lradius 94.0584 0 0
lwrist 8.66203 0 0
lhand -35.89 30.44 0
lfingers 7.12502 0 0
lthumb -9.00363 60.2279 0
rclavicle -5.7573e-14 1.55052e-14 0
rhumerus -77.6058 23.0529 -95.1289
rradius 111.89 0 0
rwrist -63.2778 0 0
rhand -10.2306 -25.0477 0
rfingers 7.12502 0 0
rthumb 15.7616 -54.4259 0
